# xmcd CD database file
#
# Track frame offsets:
#	150
#	30269
#	52103
#	73856
#	99741
#	107461
#	128756
#	158667
#	176397
#	200535
#
# Disc length: 2860 seconds
#
# Revision: 1
# Processed by: cddbd v1.5.2PL0 Copyright (c) Steve Scherf et al.
# Submitted via: CDex 1.70beta2
#
DISCID=7f0b2a0a
DTITLE=Luis Muñoz - Of Soul And Shadow
DYEAR=2007
DGENRE=Jazz
TTITLE0=Paso A Paso
TTITLE1=Verde Mundo Infinito
TTITLE2=La Semilla
TTITLE3=Al Silencio
TTITLE4=Luz Del Sur
TTITLE5=La Verdad
TTITLE6=Mas Alla De La Nostalgia
TTITLE7=El Vedado
TTITLE8=Paz
TTITLE9=Adam's Dream
EXTD=YEAR: 2007
EXTT0=
EXTT1=
EXTT2=
EXTT3=
EXTT4=
EXTT5=
EXTT6=
EXTT7=
EXTT8=
EXTT9=
PLAYORDER=
